<svg version="1.1" xmlns="http://www.w3.org/2000/svg" xmlns:xlink="http://www.w3.org/1999/xlink" width="86.44939" height="68.44571" viewBox="0,0,86.44939,68.44571"><defs><linearGradient x1="232.66588" y1="145.77715" x2="232.66588" y2="214.22287" gradientUnits="userSpaceOnUse" id="color-1"><stop offset="0" stop-color="#ff9aed"/><stop offset="1" stop-color="#c000ff"/></linearGradient></defs><g transform="translate(-196.77531,-145.77715)"><g data-paper-data="{&quot;isPaintingLayer&quot;:true}" fill-rule="nonzero" stroke="none" stroke-linecap="butt" stroke-linejoin="miter" stroke-miterlimit="10" stroke-dasharray="" stroke-dashoffset="0" style="mix-blend-mode: normal"><path d="M264.98514,200.83086c1.21576,-2.83682 4.05258,-1.62104 4.05258,-1.62104l-0.18081,0.3959c2.26682,-0.30101 6.43391,-0.25713 8.04099,-2.38304c0.41972,-0.55521 -1.36138,-0.32803 -2.05659,-0.36072c-1.99407,-0.09382 -3.99247,0.02618 -5.98874,0.02618c0,0 -3.08637,0 -3.08637,-3.08635c0,-3.08637 3.08637,-3.08637 3.08637,-3.08637c3.17017,0 8.71725,-0.89908 11.32443,1.43506c9.11471,8.16014 -4.55225,12.77716 -10.50429,13.5738l-3.06651,-0.84084c0,0 -2.83682,-1.21576 -1.62104,-4.05258z" fill="#c001fe" stroke-width="0.5"/><path d="M263.23597,163.46932c0.21989,-3.07849 3.2984,-2.85863 3.2984,-2.85863l2.06052,0.25821c0.85601,-0.15479 1.748,-0.17406 2.56802,-0.46436c0.63669,-0.2254 1.18281,-0.65921 1.72877,-1.05681c3.54345,-2.58059 -5.54382,-1.64152 -6.37109,-1.64152c0,0 -3.08635,0 -3.08635,-3.08635c0,-3.08635 3.08635,-3.08635 3.08635,-3.08635c3.76941,0 9.40858,-1.05793 12.11493,2.62284c5.18742,7.05513 -3.54362,11.63611 -8.83008,12.7654l-3.71088,-0.15404c0,0 -3.07852,-0.21989 -2.85863,-3.2984z" fill="#c001fe" stroke-width="0.5"/><path d="M264.09604,182.26112c1.21578,-2.83682 4.05258,-1.62102 4.05258,-1.62102l-0.18083,0.39589c2.26682,-0.30101 6.43391,-0.25713 8.04101,-2.38304c0.41972,-0.55521 -1.36138,-0.32801 -2.05659,-0.36072c-1.99407,-0.09382 -3.99247,0.02617 -5.98874,0.02617c0,0 -3.08635,0 -3.08635,-3.08635c0,-3.08635 3.08635,-3.08635 3.08635,-3.08635c3.17017,0 8.71723,-0.89909 11.32443,1.43506c9.11471,8.16016 -4.55225,12.77716 -10.50429,13.57382l-3.06653,-0.84083c0,0 -2.83682,-1.21578 -1.62102,-4.05258z" fill="#c001fe" stroke-width="0.5"/><path d="M196.9069,196.74736c0,-12.80523 0,-29.12259 0,-36.11604c0,-8.46847 5.80318,-14.85418 14.27166,-14.85418c7.94524,0 28.32656,0 42.52371,0c9.79231,0 14.85418,7.68321 14.85418,17.47551c0,7.48126 0,23.86687 0,36.11604c0,9.15474 -6.28195,14.85417 -15.43669,14.85417c-7.41811,0 -24.9249,0 -38.44611,0c-5.59903,0 -12.84469,-3.1858 -16.07754,-8.01974c-2.52147,-3.77025 -1.68921,-9.45575 -1.68921,-9.45575zM252.24599,188.89113c-12.23286,0 -25.922,0 -38.15485,0c0,0 -4.36115,0 -4.36115,4.36115c0,4.36115 4.36115,4.36115 4.36115,4.36115c12.23286,0 25.922,0 38.15485,0c0,0 4.36115,0 4.36115,-4.36115c0,-4.36115 -4.36115,-4.36115 -4.36115,-4.36115zM251.08096,161.80409c-12.13576,0 -25.14531,0 -37.28107,0c0,0 -4.36115,0 -4.36115,4.36115c0,4.36115 4.36115,4.36115 4.36115,4.36115c12.13576,0 25.14531,0 37.28107,0c0,0 4.36115,0 4.36115,-4.36115c0,-4.36115 -4.36115,-4.36115 -4.36115,-4.36115z" fill="url(#color-1)" stroke-width="0"/></g></g></svg>